<svg id="Layer_1" data-name="Layer 1" xmlns="http://www.w3.org/2000/svg" viewBox="0 0 40 40"><defs><style>.cls-1{fill:#93c23d;}.cls-2{fill:#404040;}.cls-3{fill:#95c11f;}.cls-4{fill:#cecece;}</style></defs><title>pluginIcon</title><path class="cls-1" d="M8.5,11.385A3.569,3.569,0,0,1,4.745,15.2,3.465,3.465,0,0,1,1,11.482H2.586a1.927,1.927,0,0,0,1.61,2.2,1.9,1.9,0,0,0,.548.007A2.059,2.059,0,0,0,6.9,11.734a1.984,1.984,0,0,0-.012-.345V8H4.317V6.5H8.5Z"/><path class="cls-2" d="M17.094,15.03H15.18l-2.488-2.853H11.143V15.03H9.534V6.483c1.353,0,2.707.012,4.06.012a2.827,2.827,0,0,1,3.062,2.574c.008.085.011.17.011.255a2.533,2.533,0,0,1-2.158,2.683l2.585,2.914ZM11.143,8v2.731h2.451A1.369,1.369,0,0,0,13.79,8a1.282,1.282,0,0,0-.2,0Z"/><path class="cls-2" d="M18.422,12.555a1.6,1.6,0,0,0,1.792,1.281,2.485,2.485,0,0,0,1.609-.561l.952.939a3.7,3.7,0,0,1-2.586.975,3.032,3.032,0,0,1-3.3-3.207,3.01,3.01,0,0,1,2.863-3.149,3.067,3.067,0,0,1,.332,0c2.012,0,3.268,1.244,3.036,3.719Zm3.268-1.231a1.379,1.379,0,0,0-1.557-1.172h0a1.619,1.619,0,0,0-1.683,1.171Z"/><path class="cls-2" d="M25.261,6.507V9.836a2.485,2.485,0,0,1,1.975-.963A2.88,2.88,0,0,1,30.3,12.019a2.95,2.95,0,0,1-2.744,3.142,3.02,3.02,0,0,1-.356,0,2.186,2.186,0,0,1-1.939-.963l-.1.829h-1.39V6.507Zm.1,5.512a1.726,1.726,0,0,0,3.451.083c0-.028,0-.056,0-.083a1.659,1.659,0,0,0-1.558-1.754c-.051,0-.1,0-.154,0a1.714,1.714,0,0,0-1.742,1.689c0,.022,0,.044,0,.067Z"/><path class="cls-2" d="M32.173,12.555a1.6,1.6,0,0,0,1.792,1.281,2.49,2.49,0,0,0,1.61-.561l.951.939a3.7,3.7,0,0,1-2.585.975,3.029,3.029,0,0,1-3.293-2.74,2.914,2.914,0,0,1-.007-.467A3.007,3.007,0,0,1,33.5,8.833a2.755,2.755,0,0,1,.34,0c2.011,0,3.267,1.244,3.036,3.719Zm3.268-1.231a1.375,1.375,0,0,0-1.553-1.172H33.88a1.617,1.617,0,0,0-1.68,1.171Z"/><path class="cls-2" d="M39,6.507V15.03H37.525V6.507Z"/><path class="cls-3" d="M7.125,24.8H8.9v.073L6,29.032,8.982,33.31v.049H7.173L4.986,30.144,2.8,33.359H.99V33.31l2.969-4.278L1.075,24.877V24.8H2.847l2.139,3.19Z"/><path class="cls-2" d="M17.036,33.359H15.118L12.625,30.5H11.073v2.86H9.459V24.792c1.357,0,2.714.012,4.07.012a2.835,2.835,0,0,1,3.08,2.835,2.539,2.539,0,0,1-2.164,2.689l2.591,2.921Zm-5.963-7.052v2.738h2.456a1.372,1.372,0,1,0,0-2.738Z"/><path class="cls-2" d="M18.369,30.878a1.6,1.6,0,0,0,1.8,1.283,2.488,2.488,0,0,0,1.613-.562l.953.941a3.7,3.7,0,0,1-2.591.977A3.037,3.037,0,0,1,16.829,30.3a3.015,3.015,0,0,1,3.2-3.153c2.017,0,3.275,1.247,3.043,3.728Zm3.275-1.234A1.379,1.379,0,0,0,20.08,28.47a1.622,1.622,0,0,0-1.686,1.174Z"/><path class="cls-2" d="M25.226,24.816v3.337a2.491,2.491,0,0,1,1.979-.966,2.885,2.885,0,0,1,3.068,3.153,2.957,2.957,0,0,1-3.1,3.153,2.191,2.191,0,0,1-1.943-.965l-.1.831H23.735V24.816Zm.1,5.524a1.73,1.73,0,1,0,3.459,0,1.662,1.662,0,0,0-1.711-1.76A1.72,1.72,0,0,0,25.323,30.34Z"/><path class="cls-2" d="M32.156,30.878a1.6,1.6,0,0,0,1.8,1.283,2.488,2.488,0,0,0,1.613-.562l.953.941a3.7,3.7,0,0,1-2.59.977A3.036,3.036,0,0,1,30.616,30.3a3.015,3.015,0,0,1,3.2-3.153c2.017,0,3.276,1.247,3.044,3.728Zm3.275-1.234a1.38,1.38,0,0,0-1.565-1.174,1.623,1.623,0,0,0-1.686,1.174Z"/><path class="cls-2" d="M39,24.816v8.543H37.521V24.816Z"/><rect class="cls-4" x="11.072" y="19.875" width="17.856" height="0.25"/></svg>