<svg xmlns="http://www.w3.org/2000/svg" width="40" height="40" viewBox="0 0 325 360">
  <defs>
    <linearGradient id="pluginicon-a" x1="94.531%" x2="53.125%" y1="3.516%" y2="50%">
      <stop offset="0%" stop-color="#FFF"/>
      <stop offset="100%"/>
    </linearGradient>
    <linearGradient id="pluginicon-b" x1="97.656%" x2="58.984%" y1="1.172%" y2="47.656%">
      <stop offset="0%" stop-color="#FFF"/>
      <stop offset="100%" stop-color="#444343"/>
    </linearGradient>
    <linearGradient id="pluginicon-c" x1="96.875%" x2="49.219%" y1="2.344%" y2="48.438%">
      <stop offset="0%" stop-color="#FFF"/>
      <stop offset="100%"/>
    </linearGradient>
  </defs>
  <g fill="none" fill-rule="evenodd" transform="translate(12 12)">
    <path fill="#A01217" d="M235,137.829268 C235,140.180894 234.168749,142.215955 232.50625,143.934452 C230.843751,145.652948 228.875001,146.512195 226.6,146.512195 L197.2,146.512195 C197.2,161.978658 194.268749,175.093497 188.40625,185.856708 L215.70625,214.21189 C217.368749,215.930387 218.2,217.965447 218.2,220.317073 C218.2,222.668699 217.368749,224.70376 215.70625,226.422255 C214.13125,228.140752 212.1625,229 209.8,229 C207.4375,229 205.46875,228.140752 203.89375,226.422255 L177.90625,199.695123 C177.468749,200.147358 176.812499,200.735265 175.9375,201.458842 C175.062501,202.182418 173.225,203.471291 170.425,205.325458 C167.625,207.179624 164.78125,208.830284 161.89375,210.277438 C159.00625,211.724593 155.41875,213.036078 151.13125,214.21189 C146.84375,215.387704 142.6,215.975609 138.4,215.975609 L138.4,94.4146343 L121.6,94.4146343 L121.6,215.975609 C117.1375,215.975609 112.696875,215.365092 108.278125,214.144055 C103.859375,212.923019 100.053125,211.43064 96.8593755,209.666921 C93.6656248,207.903201 90.7781248,206.139482 88.196875,204.375763 C85.6156252,202.612043 83.7125002,201.142277 82.4875,199.966463 L80.51875,198.067073 L56.5,226.150915 C54.7499998,228.050305 52.6499998,229 50.2,229 C48.1,229 46.2187498,228.276424 44.55625,226.829269 C42.8937501,225.201219 41.996875,223.18877 41.865625,220.79192 C41.734375,218.395071 42.4124999,216.292175 43.9,214.483233 L70.4125,183.685975 C65.3375002,173.375 62.8,160.98374 62.8,146.512195 L33.4,146.512195 C31.125,146.512195 29.15625,145.652948 27.49375,143.934452 C25.83125,142.215955 25,140.180894 25,137.829268 C25,135.477642 25.83125,133.442581 27.49375,131.724085 C29.15625,130.005589 31.125,129.146342 33.4,129.146342 L62.8,129.146342 L62.8,89.2591462 L40.09375,65.7881098 C38.43125,64.0696138 37.6,62.0345528 37.6,59.6829269 C37.6,57.3313009 38.43125,55.2962398 40.09375,53.577744 C41.7562499,51.8592478 43.7249999,51 46,51 C48.2750002,51 50.2437502,51.8592478 51.90625,53.577744 L74.6125,77.0487806 L185.3875,77.0487806 L208.09375,53.577744 C209.756249,51.8592478 211.724999,51 214,51 C216.275001,51 218.243751,51.8592478 219.90625,53.577744 C221.568749,55.2962398 222.4,57.3313009 222.4,59.6829269 C222.4,62.0345528 221.568749,64.0696138 219.90625,65.7881098 L197.2,89.2591462 L197.2,129.146342 L226.6,129.146342 C228.875001,129.146342 230.843751,130.005589 232.50625,131.724085 C234.168749,133.442581 235,135.477642 235,137.829268 Z M174,62 L90,62 C90,49.8083334 94.0906251,39.4270833 102.271875,30.85625 C110.453125,22.2854167 120.3625,18 132,18 C143.6375,18 153.546875,22.2854167 161.728125,30.85625 C169.909375,39.4270833 174,49.8083334 174,62 Z"/>
    <path stroke="url(#pluginicon-a)" stroke-dasharray="0" stroke-width="24" d="M130,260 C201.797017,260 260,201.797017 260,130 C260,58.2029825 201.797017,0 130,0 C58.2029825,0 0,58.2029825 0,130 C0,201.797017 58.2029825,260 130,260 Z"/>
    <g transform="translate(211 217)">
      <polygon fill="url(#pluginicon-b)" points="0 30 17 16.2 32 0 48 15.6 31.8 33.8 12.6 48.4" opacity=".7"/>
      <path fill="url(#pluginicon-c)" d="M12.67,47.6 C22.2256,82.267 37.114,110.667 57.337,140 C81.781,172.889 118.226,199.778 154.67,222.667 C165.337,225.778 178.003,224.8892 190.67,220.0003 C198.8922,211.1114 202.448,199.5563 201.337,187.3333 C183.781,150.2223 169.226,113.7773 141.67,83.0033 C111.003,53.8923 89.336,35.6473 48.003,15.8703 L32.003,33.3373 L12.67,47.6043 L12.67,47.6 Z"/>
      <path fill="#FFF" d="M56.01,32 C53.938,39.2853 93.159,64.235 126.123,104.585 C143.076,128.869 182.917,187.883 188.002,182.465 C178.4466,148.774 159.196,121.825 138.36,90.256 C110.105,68.4 89.916,43.209 56.01,32 Z" opacity=".2"/>
    </g>
  </g>
</svg>
