<?xml version="1.0" encoding="UTF-8" standalone="no"?>
<svg xmlns="http://www.w3.org/2000/svg" width="16" height="16" viewBox="0 0 16 16" version="1.1">
    <rect style="fill:#138313" width="14" height="12" x="1" y="2" ry="0.51720446"/>
    <path style="fill:#ffffff;stroke-width:1.0"
          d="m 2.8151977,6.3277252 c 0,0.6735549 0.5578894,1.2425925 1.2182485,1.2425925 0.6603591,0 1.2182485,-0.5690376 1.2182485,-1.2425925 0,-0.6735549 -0.5578894,-1.2425926 -1.2182485,-1.2425926 -0.6603591,0 -1.2182485,0.5690377 -1.2182485,1.2425926 z m 0,3.3445483 c 0,0.6735555 0.5578894,1.2425945 1.2182485,1.2425945 0.6603591,0 1.2182485,-0.569039 1.2182485,-1.2425945 0,-0.6735548 -0.5578894,-1.2425927 -1.2182485,-1.2425927 -0.6603591,0 -1.2182485,0.5690379 -1.2182485,1.2425927 z"/>
    <path style="fill:#ffffff;stroke-width:1.0"
          d="m 7.1331388,7.9999997 c 0,1.5445312 -0.3074085,2.7638973 -1.1157791,4.0993943 l 1.2979471,1.033559 C 8.52217,12.029716 9.3305406,9.8696952 9.3305406,7.9999997 9.3305406,6.1303044 8.52217,3.9702837 7.3153068,2.8670472 L 6.0173597,3.8773795 c 0.8083706,1.3587228 1.1157791,2.5664763 1.1157791,4.1226202 z"/>
</svg>
